<svg id="Layer_1" enable-background="new 0 0 256 256" height="512" viewBox="0 0 256 256" width="512" xmlns="http://www.w3.org/2000/svg"><path d="m55.541 58.437h12.617v24.743h-12.617z" fill="#ef6d7a"/><path d="m68.158 56.937h-12.617c-.829 0-1.5.671-1.5 1.5v24.743c0 .829.671 1.5 1.5 1.5h12.617c.829 0 1.5-.671 1.5-1.5v-24.743c0-.829-.671-1.5-1.5-1.5zm-1.5 24.743h-9.617v-21.743h9.617z" fill="#3a312a"/><path d="m35.416 35.402h52.867v9.7h-52.867z" fill="#ef6d7a"/><path d="m88.283 33.902h-52.867c-.829 0-1.5.671-1.5 1.5v9.7c0 .829.671 1.5 1.5 1.5h52.867c.829 0 1.5-.671 1.5-1.5v-9.7c0-.828-.671-1.5-1.5-1.5zm-1.5 9.701h-49.867v-6.7h49.867z" fill="#3a312a"/><path d="m50.937 45.103h21.826v13.338h-21.826z" fill="#ef6d7a"/><path d="m72.763 43.603h-21.826c-.829 0-1.5.671-1.5 1.5v13.338c0 .829.671 1.5 1.5 1.5h21.826c.829 0 1.5-.671 1.5-1.5v-13.338c0-.829-.672-1.5-1.5-1.5zm-1.5 13.338h-18.826v-10.338h18.826z" fill="#3a312a"/><path d="m32.263 24.489c-8.706 0-15.763 7.057-15.763 15.763s7.057 15.763 15.763 15.763 15.763-7.058 15.763-15.763-7.057-15.763-15.763-15.763z" fill="#8ac6dd"/><path d="m32.263 22.989c-9.519 0-17.263 7.744-17.263 17.263s7.744 17.263 17.263 17.263 17.263-7.744 17.263-17.263-7.744-17.263-17.263-17.263zm0 31.527c-7.865 0-14.263-6.399-14.263-14.264s6.398-14.263 14.263-14.263 14.263 6.398 14.263 14.263-6.398 14.264-14.263 14.264z" fill="#3a312a"/><path d="m91.436 24.489c-8.706 0-15.763 7.057-15.763 15.763s7.057 15.763 15.763 15.763 15.763-7.058 15.763-15.763-7.057-15.763-15.763-15.763z" fill="#8ac6dd"/><path d="m91.436 22.989c-9.519 0-17.263 7.744-17.263 17.263s7.744 17.263 17.263 17.263 17.263-7.744 17.263-17.263-7.744-17.263-17.263-17.263zm0 31.527c-7.865 0-14.263-6.398-14.263-14.263s6.398-14.263 14.263-14.263 14.263 6.398 14.263 14.263-6.398 14.263-14.263 14.263z" fill="#3a312a"/><path d="m47.411 143.294c-.974 11.564-13.025 13.39-13.025 13.39 10.347.487 12.925 14.059 12.925 14.059.221-9.677 13.321-14.202 13.321-14.202-9.812-.587-13.221-13.247-13.221-13.247z" fill="#d7e057"/><path d="m60.722 155.043c-8.604-.514-11.832-12.024-11.863-12.14-.19-.702-.852-1.162-1.583-1.102-.725.066-1.298.642-1.359 1.367-.86 10.215-11.313 11.963-11.754 12.032-.763.115-1.313.79-1.273 1.561.04.77.657 1.384 1.427 1.421 9.028.425 11.499 12.718 11.523 12.842.137.711.759 1.217 1.472 1.217.042 0 .084-.001.126-.005.764-.064 1.357-.693 1.375-1.459.194-8.508 12.191-12.777 12.313-12.819.675-.235 1.092-.915.994-1.623-.1-.708-.684-1.249-1.398-1.292zm-13.565 10.346c-1.357-3.13-3.709-6.907-7.587-8.876 2.931-1.405 6.409-3.913 8.202-8.273 1.551 3.071 4.2 6.88 8.334 8.722-3.008 1.64-6.923 4.406-8.949 8.427z" fill="#3a312a"/><path d="m25.712 160.275c-.689 8.179-9.212 9.471-9.212 9.471 7.318.344 9.142 9.944 9.142 9.944.156-6.845 9.422-10.046 9.422-10.046-6.941-.415-9.352-9.369-9.352-9.369z" fill="#d7e057"/><path d="m35.154 168.146c-5.766-.345-7.972-8.185-7.994-8.264-.19-.702-.854-1.171-1.582-1.102-.726.065-1.299.643-1.36 1.368-.579 6.871-7.647 8.067-7.942 8.114-.763.115-1.313.79-1.273 1.561.04.77.657 1.384 1.428 1.421 6.035.284 7.723 8.644 7.739 8.726.135.713.759 1.22 1.472 1.22.042 0 .083-.001.125-.005.765-.063 1.358-.694 1.376-1.461.13-5.709 8.332-8.634 8.413-8.662.677-.234 1.094-.913.996-1.622-.099-.709-.683-1.251-1.398-1.294zm-9.585 6.796c-.924-1.886-2.34-3.947-4.447-5.28 1.855-1.041 3.697-2.629 4.87-4.916 1.057 1.874 2.654 3.954 4.941 5.223-1.848 1.101-3.988 2.74-5.364 4.973z" fill="#3a312a"/><path d="m25.712 133.617c-.689 8.179-9.212 9.47-9.212 9.47 7.318.344 9.142 9.944 9.142 9.944.156-6.845 9.422-10.045 9.422-10.045-6.941-.415-9.352-9.369-9.352-9.369z" fill="#d7e057"/><path d="m35.154 141.489c-5.767-.345-7.973-8.186-7.994-8.265-.19-.702-.854-1.164-1.582-1.102-.726.065-1.299.643-1.36 1.368-.579 6.871-7.647 8.067-7.942 8.114-.763.115-1.313.79-1.273 1.561.04.77.657 1.384 1.428 1.421 6.035.284 7.723 8.644 7.739 8.726.135.713.759 1.22 1.472 1.22.042 0 .083-.001.125-.005.765-.063 1.358-.694 1.376-1.461.13-5.709 8.332-8.634 8.413-8.662.676-.234 1.094-.913.996-1.622-.099-.708-.683-1.25-1.398-1.293zm-9.585 6.795c-.924-1.885-2.34-3.947-4.447-5.28 1.855-1.041 3.697-2.629 4.87-4.916 1.057 1.874 2.655 3.954 4.941 5.224-1.848 1.101-3.988 2.74-5.364 4.972z" fill="#3a312a"/><path d="m227.838 83.177h-130.973-13.73-54.973c-6.441 0-11.662 5.221-11.662 11.662s5.221 11.662 11.662 11.662h199.676c6.441 0 11.662-5.221 11.662-11.662s-5.221-11.662-11.662-11.662z" fill="#87796f"/><path d="m227.838 81.676h-130.974c-.829 0-1.5.671-1.5 1.5s.671 1.5 1.5 1.5h130.974c5.603 0 10.162 4.559 10.162 10.162 0 5.604-4.559 10.162-10.162 10.162h-199.676c-5.603 0-10.162-4.559-10.162-10.162s4.559-10.162 10.162-10.162h54.974c.829 0 1.5-.671 1.5-1.5s-.671-1.5-1.5-1.5h-54.974c-7.258 0-13.162 5.905-13.162 13.162 0 7.258 5.904 13.162 13.162 13.162h199.677c7.257 0 13.162-5.904 13.162-13.162-.001-7.257-5.905-13.162-13.163-13.162z" fill="#3a312a"/><path d="m117 106.5h22v133h-22z" fill="#87796f"/><path d="m139 105h-22c-.829 0-1.5.671-1.5 1.5v133c0 .829.671 1.5 1.5 1.5h22c.829 0 1.5-.671 1.5-1.5v-133c0-.829-.671-1.5-1.5-1.5zm-1.5 133h-19v-130h19z" fill="#3a312a"/><path d="m157.479 133.5h-58.958c-11.111 0-20.118 9.007-20.118 20.119v11.772c.033 0 .064-.005.098-.005v14.228c-.034 0-.064-.004-.098-.005v11.772c0 11.111 9.007 20.119 20.118 20.119h58.959c11.111 0 20.118-9.007 20.118-20.119v-37.763c0-11.111-9.008-20.118-20.119-20.118z" fill="#8ac6dd"/><path d="m157.479 132h-58.958c-11.92 0-21.618 9.698-21.618 21.619v11.772c0 .402.199.784.485 1.066s.696.415 1.113.429c.829 0 1.5-.671 1.5-1.5 0-.188-.035-.368-.098-.534v-11.234c0-10.266 8.352-18.619 18.618-18.619h58.959c10.266 0 18.618 8.353 18.618 18.619v37.763c0 10.266-8.352 18.619-18.618 18.619h-58.959c-10.266 0-18.618-8.353-18.618-18.619v-11.175c.081-.182.126-.382.126-.592 0-.828-.643-1.499-1.472-1.499-.029-.002-.104-.006-.132-.006-.387.008-.789.15-1.075.432s-.447.667-.447 1.068v11.772c0 11.92 9.698 21.619 21.618 21.619h58.959c11.92 0 21.618-9.698 21.618-21.619v-37.763c0-11.92-9.698-21.618-21.619-21.618z" fill="#3a312a"/><path d="m180.246 58.437h12.617v24.743h-12.617z" fill="#ef6d7a"/><path d="m192.864 56.937h-12.618c-.829 0-1.5.671-1.5 1.5v24.743c0 .829.671 1.5 1.5 1.5h12.618c.829 0 1.5-.671 1.5-1.5v-24.743c0-.829-.672-1.5-1.5-1.5zm-1.5 24.743h-9.618v-21.743h9.618z" fill="#3a312a"/><path d="m160.121 35.402h52.867v9.7h-52.867z" fill="#ef6d7a"/><path d="m212.989 33.902h-52.868c-.829 0-1.5.671-1.5 1.5v9.7c0 .829.671 1.5 1.5 1.5h52.868c.829 0 1.5-.671 1.5-1.5v-9.7c0-.828-.672-1.5-1.5-1.5zm-1.5 9.701h-49.868v-6.7h49.868z" fill="#3a312a"/><path d="m212.989 21.998v36.508l26.511-18.528z" fill="#d7e057"/><path d="m240.342 38.737-26.511-17.979c-.459-.312-1.053-.345-1.545-.084-.491.26-.797.77-.797 1.325v36.508c0 .559.311 1.072.807 1.33.218.114.456.17.693.17.302 0 .603-.091.859-.271l26.511-18.528c.404-.283.644-.747.641-1.24-.003-.494-.25-.954-.658-1.231zm-25.853 16.891v-30.8l22.366 15.168z" fill="#3a312a"/><path d="m142.541 16v48.505l18.105-12.654v-23.572z" fill="#d7e057"/><path d="m161.488 27.038-18.105-12.279c-.459-.312-1.053-.345-1.544-.084-.491.26-.797.77-.797 1.325v48.504c0 .559.311 1.072.807 1.33.218.114.456.17.693.17.302 0 .603-.091.859-.271l18.105-12.653c.401-.281.641-.74.641-1.229v-23.572c-.001-.498-.248-.963-.659-1.241zm-2.342 24.031-15.105 10.557v-42.796l15.105 10.244z" fill="#3a312a"/><path d="m175.642 45.103h21.826v13.338h-21.826z" fill="#ef6d7a"/><path d="m197.468 43.603h-21.826c-.829 0-1.5.671-1.5 1.5v13.338c0 .829.671 1.5 1.5 1.5h21.826c.829 0 1.5-.671 1.5-1.5v-13.338c0-.829-.672-1.5-1.5-1.5zm-1.5 13.338h-18.826v-10.338h18.826z" fill="#3a312a"/><path d="m227.84 84.68h-18c5.6 0 10.16 4.55 10.16 10.16 0 5.6-4.56 10.16-10.16 10.16h18c5.6 0 10.16-4.56 10.16-10.16 0-5.61-4.56-10.16-10.16-10.16z" fill="#695b51"/><path d="m157.48 135h-18c10.27 0 18.62 8.35 18.62 18.62v37.76c0 10.27-8.35 18.62-18.62 18.62h18c10.27 0 18.62-8.35 18.62-18.62v-37.76c0-10.27-8.35-18.62-18.62-18.62z" fill="#6ca8bf"/></svg>